Coordinates
version=1
nRows=10
nColumns=46
inDegrees=yes

Units are S.I. units (second, meters, Newtons, ...)
Angles are in degrees.

endheader
time	pelvis_tilt	pelvis_list	pelvis_rotation	pelvis_tx	pelvis_ty	pelvis_tz	bb_angle	bb_tx	bb_ty	bb_tz	hip_flexion_r	hip_adduction_r	hip_rotation_r	knee_angle_r	knee_angle_r_beta	ankle_angle_r	subtalar_angle_r	mtp_angle_r	crank_angle_r	hip_flexion_l	hip_adduction_l	hip_rotation_l	knee_angle_l	knee_angle_l_beta	ankle_angle_l	subtalar_angle_l	mtp_angle_l	crank_angle_l	lumbar_extension	lumbar_bending	lumbar_rotation	arm_flex_r	arm_add_r	arm_rot_r	elbow_flex_r	pro_sup_r	wrist_flex_r	wrist_dev_r	arm_flex_l	arm_add_l	arm_rot_l	elbow_flex_l	pro_sup_l	wrist_flex_l	wrist_dev_l
      2.50000000	    -17.65266108	      4.51386627	      4.50599195	      0.15101349	      1.05775133	     -0.30866266	      0.00000000	      0.50000000	      0.00000000	      0.25000000	     55.84677523	     -4.57122222	     11.21589779	     70.96822580	      1.23862920	    -12.37213699	    -19.86830570	      0.00000000	      0.00000000	     80.12367285	     -2.07660227	     -2.87349721	     79.08494356	      1.38029265	     19.83696240	     -5.54206454	      0.00000000	      0.00000000	    -68.64693971	    -12.58234412	     -9.18415795	     86.14768288	    -22.61976679	     13.17482349	     59.03054384	     42.46230863	      0.00000000	      0.00000000	     89.73649214	      1.04694669	     21.75837133	     75.89525227	     36.25241357	      0.00000000	      0.00000000
      2.50500000	    -17.78484537	      4.36383624	      4.33502178	      0.15149810	      1.05776783	     -0.30860221	      0.00000000	      0.50000000	      0.00000000	      0.25000000	     56.31439715	     -4.32137794	     11.18205408	     71.87139467	      1.25439247	    -11.94869060	    -19.70017616	      0.00000000	      0.00000000	     79.76615125	     -2.15748949	     -2.77558269	     78.07648823	      1.36269179	     19.33370735	     -5.74740356	      0.00000000	      0.00000000	    -68.72392525	    -12.65412745	     -9.12878632	     86.14805726	    -22.82943319	     13.28801217	     59.59688489	     42.46196010	      0.00000000	      0.00000000	     89.73474435	      0.97828524	     21.55122590	     76.43098735	     37.25184030	      0.00000000	      0.00000000
      2.51000000	    -17.90174453	      4.26393179	      4.15974574	      0.15206895	      1.05779216	     -0.30853291	      0.00000000	      0.50000000	      0.00000000	      0.25000000	     56.79516183	     -4.10976702	     11.17602062	     72.81773630	      1.27090925	    -11.56995354	    -19.56662496	      0.00000000	      0.00000000	     79.37848013	     -2.24179252	     -2.75139417	     77.06756981	      1.34508284	     18.79020879	     -5.95887452	      0.00000000	      0.00000000	    -68.81928552	    -12.78527326	     -9.09488731	     86.07760093	    -23.11247613	     13.24009383	     60.32407803	     42.51748514	      0.00000000	      0.00000000	     89.73424734	      0.92919480	     21.52898227	     76.90315316	     37.83947696	      0.00000000	      0.00000000
      2.51500000	    -18.00702640	      4.10344441	      3.98441165	      0.15257026	      1.05781101	     -0.30840436	      0.00000000	      0.50000000	      0.00000000	      0.25000000	     57.23154359	     -3.82150888	     11.12474323	     73.72748472	      1.28678736	    -11.13266734	    -19.54815290	      0.00000000	      0.00000000	     78.99238490	     -2.34990166	     -2.64925883	     76.05659178	      1.32743794	     18.12148625	     -6.19827298	      0.00000000	      0.00000000	    -68.89877559	    -12.84779743	     -9.09363201	     86.06780908	    -23.09714513	     13.19985374	     60.70504578	     42.79819414	      0.00000000	      0.00000000	     89.73060625	      0.63431548	     22.29411765	     79.77996899	     26.21018920	      0.00000000	      0.00000000
      2.52000000	    -18.12139964	      3.91964097	      3.81125602	      0.15309344	      1.05776404	     -0.30835703	      0.00000000	      0.50000000	      0.00000000	      0.25000000	     57.72241531	     -3.55661034	     11.03708258	     74.67945805	      1.30340243	    -10.76044614	    -19.43376611	      0.00000000	      0.00000000	     78.62287533	     -2.46648706	     -2.54434479	     75.05912770	      1.31002891	     17.54125164	     -6.41705418	      0.00000000	      0.00000000	    -68.91970561	    -12.93026223	     -8.89321015	     86.03551610	    -23.55485656	     13.60828221	     61.27643183	     42.82182759	      0.00000000	      0.00000000	     89.73045193	      0.77180814	     21.88644337	     79.04070039	     31.82941454	      0.00000000	      0.00000000
      2.52500000	    -18.29929622	      3.69539955	      3.62049692	      0.15359745	      1.05752243	     -0.30823145	      0.00000000	      0.50000000	      0.00000000	      0.25000000	     58.31483792	     -3.23086316	     10.91180256	     75.65007526	      1.32034289	    -10.56470035	    -19.55832484	      0.00000000	      0.00000000	     78.35049765	     -2.63864689	     -2.41010612	     74.10516576	      1.29337914	     16.85356641	     -6.62799560	      0.00000000	      0.00000000	    -68.82971782	    -13.05228096	     -8.55990281	     85.74954177	    -24.01489406	     13.49525707	     62.23960497	     42.92085478	      0.00000000	      0.00000000	     89.73256273	      0.97554315	     21.72702831	     78.40737943	     35.09294267	      0.00000000	      0.00000000
      2.53000000	    -18.31734968	      3.59836812	      3.49740182	      0.15419535	      1.05767325	     -0.30818316	      0.00000000	      0.50000000	      0.00000000	      0.25000000	     58.73154372	     -3.11053402	     10.83493273	     76.64344551	      1.33768047	     -9.94871057	    -19.07465346	      0.00000000	      0.00000000	     77.82128827	     -2.68863211	     -2.36576647	     73.05772555	      1.27509785	     16.22894310	     -6.76681984	      0.00000000	      0.00000000	    -68.98112359	    -13.07296023	     -8.71129582	     85.94662789	    -24.07643924	     14.09119177	     62.24448319	     42.81390164	      0.00000000	      0.00000000	     89.72842755	      0.61240628	     21.58916256	     79.25534594	     36.04489921	      0.00000000	      0.00000000
      2.53500000	    -18.40434903	      3.39478063	      3.35614864	      0.15472700	      1.05763886	     -0.30819443	      0.00000000	      0.50000000	      0.00000000	      0.25000000	     59.19792532	     -2.87259740	     10.68063973	     77.58386394	      1.35409387	     -9.53175136	    -19.00003305	      0.00000000	      0.00000000	     77.40776271	     -2.78203032	     -2.21126927	     72.04485611	      1.25741995	     15.51225899	     -6.97263875	      0.00000000	      0.00000000	    -68.99690312	    -13.09152537	     -8.63436575	     85.97244197	    -24.14482841	     14.17244836	     62.52847439	     42.87014526	      0.00000000	      0.00000000	     89.72502381	      0.45870993	     21.56622219	     79.76055385	     36.36834219	      0.00000000	      0.00000000
      2.54000000	    -18.53554873	      3.20218574	      3.19443093	      0.15518328	      1.05761776	     -0.30801926	      0.00000000	      0.50000000	      0.00000000	      0.25000000	     59.69698924	     -2.56563725	     10.59119523	     78.50864483	      1.37023434	     -9.09333843	    -19.02733899	      0.00000000	      0.00000000	     77.01991289	     -3.02128765	     -2.23798587	     70.99932249	      1.23917194	     14.75263883	     -6.99924620	      0.00000000	      0.00000000	    -68.94472122	    -13.14812583	     -8.52139028	     85.91648248	    -24.22362856	     14.20448106	     62.90929614	     42.99179207	      0.00000000	      0.00000000	     89.72357021	      0.30176385	     21.67476266	     80.10730542	     36.00257564	      0.00000000	      0.00000000
      2.54500000	    -18.60019321	      2.99707261	      3.05379612	      0.15567903	      1.05757803	     -0.30802739	      0.00000000	      0.50000000	      0.00000000	      0.25000000	     60.19312558	     -2.35048605	     10.38061467	     79.48977619	      1.38735832	     -8.78060654	    -19.01761020	      0.00000000	      0.00000000	     76.56497850	     -3.11339432	     -2.06512095	     69.96900645	      1.22118954	     13.99062068	     -7.15748328	      0.00000000	      0.00000000	    -68.93530170	    -13.16510230	     -8.26921313	     85.86767044	    -24.68356278	     14.64344969	     63.49302910	     42.96710254	      0.00000000	      0.00000000	     89.72199836	      0.36518491	     21.56301817	     80.14505676	     36.47150455	      0.00000000	      0.00000000
